<svg width="64" height="64" viewBox="0 0 64 64" fill="none" xmlns="http://www.w3.org/2000/svg">
<path d="M61.3888 22.6049C58.5728 17.3825 53.056 14.1313 47.0528 14.1441H1.68959C1.06239 14.1441 0.499187 14.5281 0.255987 15.1041C0.0127868 15.6801 0.153587 16.3457 0.588787 16.7809L10.4704 26.5857C11.3408 27.4561 12.5312 27.9425 13.7728 27.9425H45.76C48.0384 27.9169 49.9072 29.7217 49.9328 31.9745C49.9584 34.2273 48.128 36.0577 45.8496 36.0833H23.7824C23.1552 36.0833 22.592 36.4545 22.3488 37.0305C22.1056 37.6065 22.2336 38.2721 22.6816 38.7073L32.576 48.5249C33.4592 49.3953 34.6368 49.8817 35.8784 49.8817H45.8496C58.8288 49.8817 68.6336 36.1857 61.3888 22.6049Z" fill="currentColor"/>
</svg>
