<svg width="60" height="60" viewBox="0 0 60 60" fill="none" xmlns="http://www.w3.org/2000/svg">
<path d="M28.2 44.5999C28.2 42.0999 26.2 40.0999 23.9 40.0999C21.4 40.0999 19.4 42.1 19.4 44.4C19.4 46.9 21.4 48.9 23.7 48.9C26.2 49.1 28.2 47.1999 28.2 44.5999ZM31.8 37.5V51.9H28.2V50.5999C26.9 51.6999 25.3 52.2999 23.5 52.2999C19.2 52.2999 15.7 48.9999 15.7 44.7999C15.7 40.5999 19.2 37.2999 23.5 37.2999C25.2 37.2999 26.8 37.9 28.2 39V37.7C28.2 37.5 31.8 37.5 31.8 37.5ZM44.1 48.5H41.3C40.5 48.5 39.9 48.1 39.9 47.4V40.7H44.1V37.5H39.9V33.5H36.1V37.5H33.3V40.7H36.1V48.4C36.1 50.4 37.5 51.9 40 51.9H44L44.1 48.5ZM52.6 52.2C56.9 52.2 59.3 50.2 59.3 47.5C59.3 45.5 57.9 44 54.8 43.5L51.6 42.7999C49.8 42.4999 49.2 42.1 49.2 41.4C49.2 40.6 50 40 51.7 40C53.5 40 54.8 40.3999 55.2 42.0999H58.8C58.7 39.1999 56.4 37.0999 52 37.0999C48.1 37.0999 45.4 38.6 45.4 41.7C45.4 43.8 46.9 45.2 50.1 45.9L53.6 46.7C55 47 55.4 47.4 55.4 48C55.4 48.8 54.3 49.4 52.6 49.4C50.5 49.4 49.3 48.9999 48.8 47.2999H45C45.6 50.1999 48 52.2 52.6 52.2ZM0.899997 32.4H14.8V35.7H4.6V40.4H14.5V43.5999H4.6V48.5H14.6V51.7999H0.699997V32.4H0.899997ZM58.9 15.5V12.9H57.9C56.4 12.9 55.1 13.6 54.4 14.7V12.9H51.6V27.2999H54.5V19.2C54.5 17 55.9 15.6 57.7 15.6C57.6 15.5 58.9 15.5 58.9 15.5ZM38.4 18.8C39 16.6 40.6 15.2 42.9 15.2C45 15.2 46.8 16.6 47.2 18.8H38.4ZM42.8 12.8C38.8 12.8 35.4 16 35.4 20.1C35.4 24.3 38.7 27.5 43.1 27.5C45.7 27.5 47.8 26.4 49.4 24.4L47.2 23C46.1 24.4 44.7 25.1 43 25.1C40.6 25.1 38.5 23.4 38.3 21.1H50V20.1C49.9 15.9 47 12.8 42.8 12.8ZM26.5 25.1C23.9 25.1 21.6 22.9 21.6 20.1C21.6 17.5 23.8 15.2 26.6 15.2C29.2 15.2 31.5 17.4 31.5 20.1C31.4 22.9 29.2 25.1 26.5 25.1ZM18.7 27.2H21.5V25.4C22.9 26.8 24.7 27.5 26.7 27.5C30.9 27.5 34.2 24.2 34.2 20.1C34.2 16 30.9 12.7 26.7 12.7C24.7 12.7 22.9 13.4 21.5 14.8V7.69995H18.6V27.2H18.7ZM8.7 25C11.5 25 13.6 22.9 13.6 19.8V7.79995H16.5V27.2H13.6V25.4C12.2 26.8 10.4 27.5 8.3 27.5C4.1 27.5 0.799997 24.4 0.799997 19.8V7.69995H3.7V19.7C3.8 22.9 5.9 25 8.7 25Z" fill="currentColor"/>
</svg>
