<?xml version="1.0" encoding="UTF-8"?>
<svg xmlns="http://www.w3.org/2000/svg" version="1.1" viewBox="0 0 500 500">
  <defs>
    <style>
      .cls-1 {
        fill: #fff;
      }
    </style>
  </defs>
  <!-- Generator: Adobe Illustrator 28.7.1, SVG Export Plug-In . SVG Version: 1.2.0 Build 142)  -->
  <g>
    <g id="Layer_1">
      <rect class="cls-1" width="500" height="500"/>
      <path d="M250.2,481.9c-122.7,0-231.1-96.8-231.3-231.2C18.6,116.1,127.1,18.5,250.2,18.6c124.9.1,230.9,100.2,230.9,231.6,0,132-106.5,231.4-230.9,231.7ZM473.7,251.6c5.8-43.4-27.3-131.1-55.9-148.4-17.8,16.5-35.8,33.1-53.5,49.4,1.4,21.3-4.8,39.4-18.7,54.3-6.5,6.9-14.5,12.4-21.8,18.4-1.9,1.6-4,3.1-7,5.4,3.7,2.2,6.1,3.9,8.6,5.2,8.3,4.2,16.4,8.6,24.9,12.3,4.2,1.8,9.1,3.1,13.7,3.2,34.1.5,68.2.6,102.3.7,2.3,0,4.7-.3,7.5-.5ZM84.5,100.2c-30.3,20.2-66.6,113.6-57.8,147.6,1.2.2,2.7.6,4.1.6,40.4.5,80.8.9,121.2,1.2,2.9,0,5.9-.8,8.5-2.1,7.3-3.5,14.4-7.3,21.5-11.1,2-1.1,3.7-2.6,6.2-4.4-14.8-12.2-29.2-22.1-48.9-15.9-10.9,15.4-26,21.7-40.1,16.6-1.8-7.1,6-10.5,7-17.7-15.1-2.8-28.4-7.8-32.7-24.8,6.1-3.8,11.8-1.4,17.1-.6,11.3,1.9,19.5,8.6,24.2,19.1,7.4,0,14,.2,20.6,0,6.3-.3,12.9,1.5,19.4-1.5-4.8-9.1-9.8-17.5-13.6-26.4-3.9-9.2-4.3-19.2-3.3-29.7-17.8-16.9-35.7-34-53.4-50.9ZM251.5,98.2c-.1,16.2,7.9,23.9,22,26,.9.1,1.8.3,2.6.5,18.1,5.4,33,15.4,43.9,30.9,1.8,2.5,2.8,5.5,4.3,8.4-6.8,4.7-12.6,8.8-18.9,13.1,0,5.5,0,10.8,0,16.2,0,5.7-.3,11.4,0,17.1.3,5.1-1.7,10.6,2.2,16.2,21.4-10.3,38.6-24.1,46.9-47,5.2-14.4,4.5-28.8-1.5-42.8-7-16.3-18.9-28.5-34.1-37-42.5-23.8-86-24.6-129.9-4-11.5,5.4-21.4,13.2-29.5,23-28.8,34.3-13.8,72.5,9.3,90.1,8.4,0,17.3.5,26.6-.3v-33c-6-4.4-11.9-8.8-17.8-13.1,6.6-13.5,17.2-21.8,27.6-29.5.3-3.6.4-6.6.7-9.5.9-7.6,4.8-13.5,11-17.8,10.1-7.1,21.7-7.2,34.5-7.5ZM248.6,26c-49.2-5.5-136.9,32.4-159.4,68.6,7,9,43.9,43.4,50.1,46.3,1-2,2-4,3.1-6,2.9-5.2,5.4-10.7,8.8-15.5,12.6-17.6,30.1-28.7,50.2-36,3.3-1.2,6.6-2.4,9.9-3.5,2.4-22.5,17.8-29.3,37.4-31.6v-22.3ZM413.8,98c-23.2-37.7-113.5-78.3-158.3-71.6v22.1c19.5,2.3,33.9,10.5,36.5,31.8,6.3,2.6,12.5,4.8,18.4,7.6,5.9,2.9,11.7,6,17.1,9.8,5.4,3.7,10.5,8,15,12.7,4.5,4.7,8.5,10,12,15.5,3.4,5.4,5.8,11.3,9.2,18.2,17.4-16.1,33.8-31.2,50-46.2ZM247.1,282.9c-28.1-4-44-20-51.2-45.1-7.1,1.3-9.8,4.8-10.9,11-4.3,22.9-9.2,45.6-13.8,68.4-3,14.9-5.8,29.7-8.8,44.9,4.4,3.3,8.2,6.6,12.5,9.3,2.4,1.5,5.5,2.4,8.3,2.5,10.4.3,20.9.3,31.4.2,2.2,0,4.3-.7,7.5-1.3-5.4-9.8-14.1-16.9-13.1-29.1,12.3-1.6,24.5.7,36.6-1,.5-3.6,1-6.5,1.5-10.1,2.5-.5,5-1.1,7.6-1.5,6.5-1.1,13-2.1,19.4-3.2,2.5-.5,3.5-2,1.6-5.8h-28.5v-39.1ZM136.3,259.8l-.3-2.5c-1.9-.5-3.7-1.4-5.6-1.5-27.9-1.8-98.9-1-104.7,1.2,0,2.8-.3,5.8,0,8.7,1.5,11.2,2.8,22.6,5.1,33.7,5.1,24.8,14.9,47.9,28.2,69.4,1.4,2.3,2.3,5.8,7.5,4.9.2-5.7.6-11.6.4-17.4-.2-5.6,1.1-10.5,3.8-15.3,8.7-15.7,18-31.1,25.6-47.3,6.2-13.2,15-22.5,28.6-27.5,4-1.5,7.6-4.2,11.4-6.3ZM354.7,449.1c0-1.5.1-2.4,0-3.2-5.3-28.2-10.6-56.4-16-84.5-.4-2.2-1.3-4.9-2.9-6.3-12-11.2-24.2-22.1-35.4-32.3h-15.8c-.5,3.4-.9,6.3-1.3,9.4-9.6,4.4-21.1,1.6-30.5,7.1,1.5,4.6,4.3,4.2,6.9,4.2,8.1,0,16.2,0,24.2.2,2.2,0,4.3.8,6.8,1.3-1,11.5-7.9,19.2-15,28.4,4.2.5,6.7,1,9.2,1.1,9,.2,17.9.1,26.9.2,2.9,0,6.1-.4,7.8,4.7-5.3,4.4-10.9,9.2-15.9,13.3v54.4c6,4.7,12.6,9.8,20.4,15.9,9-3.1,20.3-7.4,30.6-13.8ZM76.7,343.5c2.9,1,4.5,1.8,6.1,2,16.3,1.3,70.1.5,75.9-1.1.3-.5.7-1,.8-1.5,6.1-29.8,12.2-59.7,18.1-89.5.3-1.5-.5-3.2-.9-5.4-2.3.7-4.1.9-5.6,1.7-18.9,9.7-37.8,19.3-56.5,29.3-2.9,1.6-5.3,4.7-7,7.7-6.4,11.1-12.4,22.5-18.5,33.8-4,7.3-7.9,14.7-12.5,23.1ZM449.4,354.3c-.3-1.2-.4-1.8-.7-2.3-13.5-21.9-27-43.8-40.7-65.5-1.5-2.3-4.2-4.3-6.7-5.6-23-11.6-46-23-69-34.3-2-1-4.3-1.4-7.8-2.4,1.8,17.1,5.4,32.3,8.4,47.6,14.2,7,28,13.5,41.5,20.5,7.5,3.9,15,7.3,23.7,6.6.5,0,1.1.5,1.8.9,11.3,19.2,20.2,40.1,32.8,60.8,7.5-8.9,12.1-17.8,16.6-26.2ZM253.5,283.3c.1,11.3-.6,21.3.3,31.4,2.3.3,3.7.6,5.2.6,1.1,0,2.3-.4,3.6-.7.7-1.4,1.3-2.7,2.1-4,8.2-13.9,24-13.7,32.1.3,1,1.7,2.3,3.5,3.8,4.7,5,4.2,10.4,8,15.2,12.4,18.7,16.7,37.3,33.6,56,50.4,1.9,1.7,3.5,4.4,7.8,2.1v-58.7c-3-1.6-6.1-3.3-9.3-4.9-12.3-6.1-24.7-12.1-37-18.1-11-5.3-21.6-12.7-33.2-15.3-12-2.7-25-.9-37.5-1-2.6,0-5.2.3-9,.6ZM377.4,260.1c2.9,2.2,4.6,3.8,6.5,4.8,6.6,3.5,13.2,7,20,10,4.9,2.1,8.2,5.5,10.9,10,10.5,17.4,21.3,34.6,32.1,51.8,1.6,2.6,3.7,4.9,5.8,7.6,11.9-16.1,24.5-70.1,20.2-84.8-13.4-2.3-87-2.4-95.6.6ZM95.2,385c-.1,1-.2,1.9-.3,2.9,7.1,5.7,15.8,8.9,23.7,13.2,7.9,4.3,15.9,8.3,23.8,12.4,8.2,4.3,16.5,8.5,24.7,12.7,8.1,4.2,16.2,8.4,25.8,13.3,2.5-16.1.9-30.8,1.5-45.7-12.5-9.1-24.7-18.1-36.4-26.6-21.6,6.1-42.2,12-62.7,17.8ZM259.8,173.8c-.3-7.2,2.5-12.6,7.4-16.9,7.3-6.5,16-6.5,26.1-3.8-10.8-16.7-24.5-25.3-43.2-25.1-18.2.2-31.6,9-41.3,24.2,1.1.3,1.7.8,2.1.7,16.6-6.5,33.4,6.4,31.7,25.7-.4,4.7,0,9.4,0,13.6,1.4.8,2,1.4,2.5,1.4,14.3.2,28.6.9,42.9.4,7.4-.3,10.1-4.3,10.6-11.9.2-2.7.2-5.4,0-8.1-.6-9.2-6.1-15.5-14.5-16.7-7.5-1.1-13.8,3.3-17.6,12.4,6,3.3,12.1,4.1,18.8,2.3,2.7-.7,5.8-2.3,7.6,1.6-7.2,6.9-18.1,7.1-33.1.2ZM295.8,443.2c1.9-14,1.6-41-.5-47.4-16-.1-32.3-.7-47.8-.2-3.1,6.3,3.4,6.2,4.2,9.3v15.1c-2,1.6-3.8,3.1-5.3,4.2-.3,3.5-.6,6.5-.8,9-2.4,1.9-4.4,3.5-6.7,5.3,1,1.4,1.7,3.1,2.3,3.1,18.1.6,36.2,1,54.6,1.4ZM387,326.1v65.8c5.7,5.8,12.3,11.7,19.7,17.6,7.4-8.4,14.1-15.9,21-23.7-10.3-19.7-20.3-38.7-30.3-57.7-2.3-4.4-5.7-4.6-10.4-1.9ZM349.3,366.9c-1.1,3.4-2.2,4.9-1.9,6,5.1,23.7,8.4,47.8,14.6,72.6,15.3-9.2,28.7-18,40.4-30.8-17.7-16-34.7-31.2-53.1-47.8ZM156.8,352.7h-82.5c-1.8,13.4-1.3,24.5,1.5,30.8,26.5-7.4,53.2-14.8,80-22.3.3-2.9.6-5.1.9-8.4ZM76.9,391.7c6.2,13.8,44.6,46.9,61.3,52.4,2.3-7.3,4.2-14.6,4.5-23-2.6-1.4-5.1-2.9-7.7-4.2-13-6.7-25.9-13.4-38.9-20.1-4.5-2.3-9-4.6-13.5-7-2.6-1.3-4.6-.9-5.8,1.9ZM216.8,349.9c4.3,14.4,16.7,23.5,30.7,24.4,14.6,1,31.3-9.4,34.5-22.8-1.8-.6-3.6-1.8-5.5-1.8-19.6,0-39.2-1.2-59.7.1ZM209,434.6c-1.9-2.8-1.1-4.7,1.4-5.3,2.3-.6,4.7-.4,7.1-.4,5.7,0,11.4.4,17,.3,3.7,0,5.4-1.9,4-6.1-9.9-3-20.6,1.1-30.2-3.1.1-4.9,3.2-4.5,5.8-4.5,8.4,0,16.8.1,25.1.1,3,0,6.2.2,6.5-4-1.2-3.5-4-3.3-6.7-3.3-7.5,0-15,0-22.4-.1-2.6,0-5.1-.4-7.3-.5-1.6-4,0-5.6,2.7-5.8,3.3-.3,6.6,0,9.9,0,5.6,0,11.2,0,17.1,0v-5.2c-7.1-2-31.1-2.3-37.9-.3.2,14.8-1,29.9,0,46,10,0,19.2.1,28.4-.1,1.5,0,2.9-2.1,5.7-4.2-9.4-5-18.5-1.1-26.1-3.5ZM219.2,77.9c5.6-.7,10.3-1.6,14.9-1.8,14-.8,28.1-1.3,42,1.3,2.6.5,6,1.9,7.8-1.7-2.1-8.1-4.7-12.3-11-15.6-14.2-7.3-28.9-7.2-43,0-6.2,3.1-10.9,8.2-10.6,17.8ZM282.4,272.5c1.6,5,5.2,4.6,8.3,4.3,8.7-.9,16.5,1.5,23.9,5.9,2.4,1.4,5.2,2.4,9.5,4.2-1.2-17.8-5-33.2-8.2-48.6-3.5-1.5-6.4-2.8-10.7-4.6-2.5,16.7-10.4,29.3-22.7,38.9ZM193.5,465c0,.8.1,1.6.2,2.4,1.9.8,3.6,1.8,5.6,2.2,8.8,1.7,17.5,3.7,26.4,4.5,23.9,2.3,47.6,1.6,71.2-3.6,2.3-.5,4.5-1.9,6.7-2.8l-.2-2.2c-2.1-.5-4.2-1.5-6.3-1.5-32.8-.3-65.6-.6-98.4-.7-1.7,0-3.4,1.1-5.1,1.7ZM272.6,227.1c-6.5,1.6-12.4,3.2-18.6,4.7v43.2c7.9,1,13.9-1.7,19.5-5.3,2-12.1,1.7-36.1-.9-42.6ZM149.5,424.7c-1.9,9.3-3.4,16.7-5,24.7,9.8,4.4,18.6,8.5,27.1,12.3,6.3-5.4,11.9-10.1,18.6-15.8-13.5-7.9-26.2-13.9-40.6-21.2ZM235.6,178c-9.6.4-18.9,2.5-27.4-4.1.6-1.4,1.2-2.6,1.9-4.2,8.5,2.4,16.8,5.6,25,.3-3.3-11.1-13-15.8-22.7-11.2-8.9,4.2-13.5,22-7.6,29.8,1,1.3,2.6,2.6,4.2,3.1,8.6,2.7,17.3,2.9,26.4,1.2v-14.9ZM246.5,275c.1-15,1.1-29.4,0-43.6-6.8-1.6-12.5-3-18-4.3-2.2,6.6-2.8,29.1-1.3,42.2,7.2,4.8,10.3,5.8,19.5,5.7ZM302.9,455.6c-1.2-5-4.2-6.1-8.2-6.1-5.1,0-10.2,0-15.3,0-25.1-.3-50.2-.6-75.4-1-4.9,0-8.9.6-10.9,6.3,1.3.7,2.4,1.8,3.7,2,11.7,1.6,100.5.7,105.9-1.1ZM193.7,381.9c2.3,6.6,6.7,6.7,11.3,6.7,29.3.1,58.6.3,87.9.5,1.8,0,3.7.2,5.4-.2,3-.8,5.4-2.4,4.8-7.2-34.7-.5-69.2-.9-103.8-1.3-1.6,0-3.3.9-5.5,1.6ZM282.8,261.6c14.3-9.5,21.7-40.1,13-52.4-4.8,4.4-9.6,8.8-14.3,13-1.9,14.8-1.4,33.3,1.3,39.4ZM218.1,260.9c2-5.6,2.8-29.3,1.2-39.4-4.4-5-9.6-7.4-16.2-4.6-3.6,18.5,3.5,39.3,14.9,44ZM244.9,105.5c-20.2-1.4-34.7,9.1-31.2,22.3,11.9-2.6,23.9-5.3,36.3-8-1.8-5.1-3.4-9.5-5.1-14.3ZM255.1,202.6c0,.6,0,1.4.3,1.7,2.6,2.4,5.2,4.8,8,7,10.7,8.3,21.7,4.5,25.9-8.8-7.3-3.2-28.6-3.1-34.2,0ZM210.9,201.6c2,5.7,5.5,9.3,9.9,11.9,2.4,1.4,5.7,2.1,8.5,1.9,5.2-.3,13.8-7.2,17.1-12.8-5-2.9-25.5-3.6-35.5-1ZM264.8,221c-5.5-4.4-9.5-7.6-13.4-10.6-5.9,2.8-10.6,5.6-13.8,11.4,8.8,3.8,16.8,4.4,27.3-.7ZM298.2,147.3c2.7,7.1,5.3,13.7,8.2,21.2,3.8-2.7,6.6-4.6,9.6-6.7-3.6-6.8-8-11.8-13.8-15.5-.6-.4-2.1.4-3.9.9ZM203.3,147.8c-.7-.7-1.5-1.3-2.2-2-6.7,2.8-10.9,8.1-14.7,15.3,3.3,2,6.1,3.7,9.6,5.8,2.8-7.2,5.1-13.2,7.3-19.1ZM110.5,225.3c8,2.4,13.5,0,17.7-7-5.8-2.8-12-.5-17.7,7ZM86,196.8c4.1,8.5,11.3,11.4,17.8,7.9-4.3-5.8-9.6-8.6-17.8-7.9ZM290.3,314.9c-1.7-6.4-5.5-7.7-9.8-7.6-4.4,0-8.1,1.6-9,7.6h18.9ZM195,226.1v-9.6c-4.4-.7-8.2-2-12.1,1.2,2,5.2,6.5,5.8,12.1,8.4Z"/>
      <path class="cls-1" d="M473.7,251.6c-2.8.2-5.1.5-7.5.5-34.1-.2-68.2-.3-102.3-.7-4.6,0-9.4-1.4-13.7-3.2-8.5-3.7-16.7-8.1-24.9-12.3-2.6-1.3-4.9-3-8.6-5.2,3.1-2.4,5.1-3.8,7-5.4,7.3-6.1,15.4-11.5,21.8-18.4,13.9-14.9,20.1-33,18.7-54.3,17.7-16.3,35.6-32.9,53.5-49.4,28.6,17.4,61.7,105.1,55.9,148.4Z"/>
      <path class="cls-1" d="M84.5,100.2c17.7,16.9,35.6,34,53.4,50.9-1,10.6-.6,20.5,3.3,29.7,3.8,8.9,8.8,17.3,13.6,26.4-6.5,2.9-13.1,1.2-19.4,1.5-6.6.3-13.1,0-20.6,0-4.7-10.5-12.9-17.2-24.2-19.1-5.3-.9-11-3.3-17.1.6,4.3,17,17.6,22,32.7,24.8-.9,7.2-8.7,10.7-7,17.7,14.1,5.1,29.2-1.2,40.1-16.6,19.8-6.2,34.2,3.7,48.9,15.9-2.5,1.8-4.2,3.3-6.2,4.4-7.1,3.8-14.2,7.6-21.5,11.1-2.6,1.2-5.7,2.1-8.5,2.1-40.4-.3-80.8-.7-121.2-1.2-1.4,0-2.9-.4-4.1-.6-8.8-34,27.5-127.4,57.8-147.6ZM66.1,221.1c0,5.5,4.5,10.4,9.9,10.6,5.4.2,10.3-4.4,10.5-9.9.3-6-4.5-11-10.3-10.9-5.6,0-10,4.6-10.1,10.3Z"/>
      <path class="cls-1" d="M251.5,98.2c-12.8.3-24.4.3-34.5,7.5-6.1,4.3-10,10.2-11,17.8-.4,2.9-.5,5.9-.7,9.5-10.5,7.7-21.1,16-27.6,29.5,5.9,4.4,11.8,8.7,17.8,13.1v33c-9.3.8-18.2.3-26.6.3-23.1-17.6-38.1-55.7-9.3-90.1,8.2-9.8,18-17.6,29.5-23,43.9-20.6,87.4-19.9,129.9,4,15.2,8.5,27,20.7,34.1,37,6.1,14.1,6.8,28.4,1.5,42.8-8.3,22.9-25.5,36.7-46.9,47-3.9-5.6-1.9-11.1-2.2-16.2-.3-5.7,0-11.4,0-17.1,0-5.4,0-10.7,0-16.2,6.2-4.3,12.1-8.4,18.9-13.1-1.5-2.9-2.5-5.9-4.3-8.4-11-15.5-25.9-25.5-43.9-30.9-.9-.3-1.7-.4-2.6-.5-14.1-2.1-22.1-9.8-22-26Z"/>
      <path class="cls-1" d="M248.6,26v22.3c-19.6,2.3-34.9,9.1-37.4,31.6-3.3,1.2-6.6,2.3-9.9,3.5-20.1,7.3-37.5,18.4-50.2,36-3.5,4.8-6,10.3-8.8,15.5-1.1,2-2.1,4-3.1,6-6.2-3-43.1-37.4-50.1-46.3C111.7,58.4,199.4,20.5,248.6,26Z"/>
      <path class="cls-1" d="M413.8,98c-16.2,15-32.6,30.1-50,46.2-3.4-6.9-5.9-12.8-9.2-18.2-3.5-5.5-7.5-10.8-12-15.5-4.5-4.7-9.7-8.9-15-12.7-5.4-3.7-11.2-6.9-17.1-9.8-5.9-2.9-12.1-5-18.4-7.6-2.6-21.3-17-29.5-36.5-31.8v-22.1c44.8-6.7,135.1,33.9,158.3,71.6Z"/>
      <path class="cls-1" d="M247.1,282.9v39.1h28.5c2,3.8,1,5.3-1.6,5.8-6.5,1.2-12.9,2.1-19.4,3.2-2.6.4-5.1,1-7.6,1.5-.5,3.6-1,6.5-1.5,10.1-12.1,1.7-24.3-.5-36.6,1-1.1,12.2,7.6,19.4,13.1,29.1-3.2.6-5.3,1.3-7.5,1.3-10.5,0-20.9.1-31.4-.2-2.8,0-5.9-1-8.3-2.5-4.3-2.6-8.1-6-12.5-9.3,3-15.2,5.8-30.1,8.8-44.9,4.6-22.8,9.5-45.6,13.8-68.4,1.2-6.2,3.8-9.7,10.9-11,7.2,25,23.1,41.1,51.2,45.1Z"/>
      <path class="cls-1" d="M136.3,259.8c-3.8,2.1-7.4,4.8-11.4,6.3-13.6,5-22.4,14.3-28.6,27.5-7.6,16.2-16.8,31.7-25.6,47.3-2.7,4.9-4,9.8-3.8,15.3.2,5.8-.2,11.7-.4,17.4-5.2.9-6-2.6-7.5-4.9-13.3-21.6-23.1-44.6-28.2-69.4-2.3-11.1-3.5-22.4-5.1-33.7-.4-2.9,0-5.9,0-8.7,5.8-2.2,76.8-3.1,104.7-1.2,1.9.1,3.7,1,5.6,1.5l.3,2.5Z"/>
      <path class="cls-1" d="M354.7,449.1c-10.4,6.3-21.7,10.7-30.6,13.8-7.8-6.1-14.4-11.2-20.4-15.9v-54.4c5-4.2,10.7-8.9,15.9-13.3-1.6-5.1-4.8-4.7-7.8-4.7-9,0-17.9,0-26.9-.2-2.5,0-5-.6-9.2-1.1,7.2-9.3,14-16.9,15-28.4-2.5-.5-4.6-1.2-6.8-1.3-8.1-.2-16.1-.1-24.2-.2-2.6,0-5.5.3-6.9-4.2,9.4-5.5,20.9-2.7,30.5-7.1.4-3.1.8-6,1.3-9.4h15.8c11.2,10.1,23.4,21.1,35.4,32.3,1.6,1.5,2.4,4.1,2.9,6.3,5.4,28.2,10.7,56.3,16,84.5.2.8,0,1.7,0,3.2Z"/>
      <path class="cls-1" d="M76.7,343.5c4.6-8.5,8.5-15.8,12.5-23.1,6.1-11.3,12.1-22.6,18.5-33.8,1.7-3,4.1-6.1,7-7.7,18.7-10,37.6-19.7,56.5-29.3,1.5-.8,3.3-1,5.6-1.7.4,2.2,1.2,3.9.9,5.4-6,29.9-12.1,59.7-18.1,89.5-.1.5-.6,1-.8,1.5-5.7,1.6-59.6,2.4-75.9,1.1-1.6-.1-3.2-1-6.1-2Z"/>
      <path class="cls-1" d="M449.4,354.3c-4.5,8.4-9.1,17.3-16.6,26.2-12.6-20.7-21.5-41.6-32.8-60.8-.8-.4-1.3-.9-1.8-.9-8.7.7-16.2-2.7-23.7-6.6-13.5-7-27.3-13.5-41.5-20.5-3-15.3-6.6-30.5-8.4-47.6,3.5,1.1,5.8,1.5,7.8,2.4,23.1,11.4,46.1,22.8,69,34.3,2.5,1.3,5.2,3.2,6.7,5.6,13.7,21.8,27.2,43.7,40.7,65.5.3.5.3,1.1.7,2.3Z"/>
      <path class="cls-1" d="M253.5,283.3c3.8-.3,6.4-.6,9-.6,12.6,0,25.6-1.7,37.5,1,11.6,2.7,22.2,10,33.2,15.3,12.4,6,24.7,12,37,18.1,3.2,1.6,6.3,3.3,9.3,4.9v58.7c-4.3,2.3-5.9-.5-7.8-2.1-18.7-16.8-37.2-33.7-56-50.4-4.9-4.3-10.2-8.1-15.2-12.4-1.5-1.3-2.8-3-3.8-4.7-8.2-14-23.9-14.2-32.1-.3-.8,1.3-1.4,2.6-2.1,4-1.3.3-2.5.7-3.6.7-1.4,0-2.9-.3-5.2-.6-.9-10.1-.2-20.2-.3-31.4Z"/>
      <path class="cls-1" d="M377.4,260.1c8.5-3,82.2-2.9,95.6-.6,4.2,14.7-8.3,68.6-20.2,84.8-2.1-2.7-4.2-5-5.8-7.6-10.8-17.2-21.5-34.4-32.1-51.8-2.7-4.5-6-7.9-10.9-10-6.8-3-13.4-6.5-20-10-1.9-1-3.5-2.6-6.5-4.8Z"/>
      <path class="cls-1" d="M95.2,385c20.6-5.8,41.1-11.7,62.7-17.8,11.7,8.6,23.9,17.5,36.4,26.6-.6,14.9,1.1,29.7-1.5,45.7-9.5-4.9-17.6-9.1-25.8-13.3-8.2-4.2-16.5-8.5-24.7-12.7-8-4.1-16-8.1-23.8-12.4-7.9-4.3-16.6-7.5-23.7-13.2.1-1,.2-1.9.3-2.9Z"/>
      <path class="cls-1" d="M259.8,173.8c15,6.8,25.9,6.7,33.1-.2-1.8-3.9-4.9-2.3-7.6-1.6-6.6,1.8-12.8,1.1-18.8-2.3,3.7-9.2,10-13.5,17.6-12.4,8.4,1.2,13.9,7.5,14.5,16.7.2,2.7.2,5.4,0,8.1-.5,7.7-3.2,11.7-10.6,11.9-14.3.5-28.6-.2-42.9-.4-.5,0-1-.6-2.5-1.4,0-4.2-.3-8.9,0-13.6,1.7-19.4-15.1-32.2-31.7-25.7-.4.2-1.1-.3-2.1-.7,9.8-15.2,23.1-24,41.3-24.2,18.7-.2,32.4,8.4,43.2,25.1-10.2-2.7-18.8-2.7-26.1,3.8-4.9,4.3-7.7,9.7-7.4,16.9Z"/>
      <path class="cls-1" d="M295.8,443.2c-18.5-.4-36.6-.8-54.6-1.4-.7,0-1.3-1.7-2.3-3.1,2.3-1.8,4.3-3.4,6.7-5.3.2-2.6.5-5.5.8-9,1.4-1.2,3.2-2.6,5.3-4.2v-15.1c-.7-3.2-7.3-3-4.2-9.3,15.6-.5,31.8,0,47.8.2,2.1,6.4,2.5,33.4.5,47.4Z"/>
      <path class="cls-1" d="M387,326.1c4.6-2.7,8-2.5,10.4,1.9,10,19,19.9,38,30.3,57.7-6.9,7.8-13.6,15.3-21,23.7-7.4-5.9-14-11.8-19.7-17.6v-65.8Z"/>
      <path class="cls-1" d="M349.3,366.9c18.4,16.6,35.3,31.8,53.1,47.8-11.7,12.8-25.1,21.6-40.4,30.8-6.2-24.9-9.6-48.9-14.6-72.6-.2-1.1.8-2.6,1.9-6Z"/>
      <path class="cls-1" d="M156.8,352.7c-.4,3.3-.6,5.5-.9,8.4-26.9,7.5-53.5,14.9-80,22.3-2.8-6.3-3.2-17.3-1.5-30.8h82.5Z"/>
      <path class="cls-1" d="M76.9,391.7c1.2-2.8,3.2-3.2,5.8-1.9,4.5,2.3,9,4.6,13.5,7,13,6.7,25.9,13.4,38.9,20.1,2.6,1.3,5.1,2.8,7.7,4.2-.3,8.3-2.2,15.6-4.5,23-16.8-5.5-55.1-38.6-61.3-52.4Z"/>
      <path class="cls-1" d="M216.8,349.9c20.5-1.3,40.1-.2,59.7-.1,1.8,0,3.7,1.2,5.5,1.8-3.1,13.4-19.9,23.8-34.5,22.8-13.9-.9-26.4-10-30.7-24.4Z"/>
      <path class="cls-1" d="M209,434.6c7.6,2.4,16.7-1.5,26.1,3.5-2.8,2.1-4.2,4.1-5.7,4.2-9.2.3-18.4.1-28.4.1-1-16.1.1-31.2,0-46,6.9-2,30.8-1.7,37.9.3v5.2c-5.9,0-11.5,0-17.1,0-3.3,0-6.6-.2-9.9,0-2.8.3-4.4,1.9-2.7,5.8,2.2.2,4.7.5,7.3.5,7.5.1,15,0,22.4.1,2.7,0,5.5-.2,6.7,3.3-.3,4.2-3.5,4-6.5,4-8.4,0-16.8-.1-25.1-.1-2.6,0-5.7-.4-5.8,4.5,9.6,4.2,20.4.2,30.2,3.1,1.5,4.2-.3,6-4,6.1-5.7,0-11.4-.3-17-.3-2.4,0-4.8-.2-7.1.4-2.4.6-3.2,2.5-1.4,5.3Z"/>
      <path class="cls-1" d="M219.2,77.9c-.3-9.6,4.4-14.7,10.6-17.8,14.2-7.1,28.8-7.2,43,0,6.4,3.3,8.9,7.4,11,15.6-1.8,3.6-5.2,2.2-7.8,1.7-13.9-2.7-28-2.1-42-1.3-4.7.3-9.3,1.1-14.9,1.8Z"/>
      <path class="cls-1" d="M282.4,272.5c12.3-9.6,20.3-22.2,22.7-38.9,4.3,1.9,7.2,3.1,10.7,4.6,3.2,15.5,7,30.9,8.2,48.6-4.3-1.9-7-2.8-9.5-4.2-7.4-4.3-15.2-6.7-23.9-5.9-3.1.3-6.7.8-8.3-4.3Z"/>
      <path class="cls-1" d="M193.5,465c1.7-.6,3.4-1.7,5.1-1.7,32.8.1,65.6.4,98.4.7,2.1,0,4.2,1,6.3,1.5l.2,2.2c-2.2,1-4.4,2.3-6.7,2.8-23.5,5.2-47.3,5.8-71.2,3.6-8.9-.8-17.6-2.9-26.4-4.5-1.9-.4-3.7-1.4-5.6-2.2,0-.8-.1-1.6-.2-2.4Z"/>
      <path class="cls-1" d="M272.6,227.1c2.6,6.5,2.9,30.5.9,42.6-5.6,3.6-11.6,6.3-19.5,5.3v-43.2c6.1-1.6,12.1-3.1,18.6-4.7Z"/>
      <path class="cls-1" d="M149.5,424.7c14.4,7.3,27.2,13.3,40.6,21.2-6.7,5.7-12.2,10.4-18.6,15.8-8.5-3.8-17.3-7.9-27.1-12.3,1.6-8,3.1-15.4,5-24.7Z"/>
      <path class="cls-1" d="M235.6,178v14.9c-9.1,1.7-17.8,1.5-26.4-1.2-1.6-.5-3.2-1.8-4.2-3.1-6-7.7-1.4-25.5,7.6-29.8,9.7-4.6,19.3.1,22.7,11.2-8.2,5.2-16.5,2.1-25-.3-.7,1.6-1.3,2.8-1.9,4.2,8.4,6.6,17.8,4.4,27.4,4.1Z"/>
      <path class="cls-1" d="M246.5,275c-9.2,0-12.3-.9-19.5-5.7-1.4-13.2-.8-35.6,1.3-42.2,5.6,1.3,11.2,2.7,18,4.3,1.2,14.2.2,28.6,0,43.6Z"/>
      <path class="cls-1" d="M302.9,455.6c-5.5,1.8-94.2,2.7-105.9,1.1-1.3-.2-2.4-1.3-3.7-2,2-5.7,6-6.4,10.9-6.3,25.1.4,50.2.7,75.4,1,5.1,0,10.2.1,15.3,0,4,0,7,1,8.2,6.1Z"/>
      <path class="cls-1" d="M193.7,381.9c2.3-.7,3.9-1.6,5.5-1.6,34.5.4,69.1.8,103.8,1.3.6,4.8-1.7,6.4-4.8,7.2-1.7.4-3.6.2-5.4.2-29.3-.2-58.6-.3-87.9-.5-4.6,0-9,0-11.3-6.7Z"/>
      <path class="cls-1" d="M282.8,261.6c-2.7-6.1-3.2-24.6-1.3-39.4,4.7-4.2,9.4-8.6,14.3-13,8.8,12.4,1.3,43-13,52.4Z"/>
      <path class="cls-1" d="M218.1,260.9c-11.4-4.7-18.5-25.5-14.9-44,6.6-2.8,11.7-.4,16.2,4.6,1.5,10.1.8,33.8-1.2,39.4Z"/>
      <path class="cls-1" d="M244.9,105.5c1.7,4.8,3.3,9.2,5.1,14.3-12.4,2.7-24.3,5.4-36.3,8-3.5-13.1,10.9-23.6,31.2-22.3Z"/>
      <path class="cls-1" d="M255.1,202.6c5.5-3.2,26.8-3.2,34.2,0-4.2,13.3-15.1,17.1-25.9,8.8-2.8-2.2-5.4-4.6-8-7-.3-.3-.2-1.1-.3-1.7Z"/>
      <path class="cls-1" d="M210.9,201.6c10-2.7,30.4-1.9,35.5,1-3.3,5.6-12,12.5-17.1,12.8-2.8.1-6.1-.5-8.5-1.9-4.4-2.5-7.9-6.2-9.9-11.9Z"/>
      <path class="cls-1" d="M264.8,221c-10.5,5.1-18.4,4.5-27.3.7,3.3-5.8,7.9-8.6,13.8-11.4,3.9,3.1,7.9,6.3,13.4,10.6Z"/>
      <path class="cls-1" d="M298.2,147.3c1.9-.5,3.3-1.3,3.9-.9,5.8,3.7,10.2,8.7,13.8,15.5-2.9,2.1-5.7,4-9.6,6.7-2.9-7.5-5.4-14.1-8.2-21.2Z"/>
      <path class="cls-1" d="M203.3,147.8c-2.3,6-4.6,12-7.3,19.1-3.4-2.1-6.3-3.8-9.6-5.8,3.8-7.2,8-12.5,14.7-15.3.7.7,1.5,1.3,2.2,2Z"/>
      <path class="cls-1" d="M110.5,225.3c5.6-7.5,11.9-9.8,17.7-7-4.1,7.1-9.7,9.4-17.7,7Z"/>
      <path class="cls-1" d="M86,196.8c8.2-.8,13.6,2,17.8,7.9-6.6,3.6-13.7.6-17.8-7.9Z"/>
      <path class="cls-1" d="M290.3,314.9h-18.9c1-6,4.7-7.6,9-7.6,4.3,0,8.1,1.2,9.8,7.6Z"/>
      <path class="cls-1" d="M195,226.1c-5.6-2.7-10.1-3.2-12.1-8.4,3.8-3.2,7.7-1.9,12.1-1.2v9.6Z"/>
      <path d="M66.1,221.1c0-5.7,4.6-10.2,10.1-10.3,5.9,0,10.6,5,10.3,10.9-.3,5.6-5.1,10.1-10.5,9.9-5.4-.2-10-5.1-9.9-10.6ZM81.4,220.7c-1.9-1.6-3.6-2.9-5-4.1-3.9,1.7-5.9,4-3.3,7,2.9,3.3,5.6,1.8,8.2-2.9Z"/>
      <path class="cls-1" d="M81.4,220.7c-2.7,4.7-5.4,6.2-8.2,2.9-2.6-3-.6-5.3,3.3-7,1.4,1.2,3.1,2.5,5,4.1Z"/>
    </g>
  </g>
</svg>